<?xml version="1.0" encoding="UTF-8" standalone="no"?>
<svg
   xmlns:dc="http://purl.org/dc/elements/1.1/"
   xmlns:cc="http://creativecommons.org/ns#"
   xmlns:rdf="http://www.w3.org/1999/02/22-rdf-syntax-ns#"
   xmlns:svg="http://www.w3.org/2000/svg"
   xmlns="http://www.w3.org/2000/svg"
   xmlns:sodipodi="http://sodipodi.sourceforge.net/DTD/sodipodi-0.dtd"
   xmlns:inkscape="http://www.inkscape.org/namespaces/inkscape"
   version="1.1"
   id="svg2"
   width="225"
   height="45"
   viewBox="0 0 225 45"
   sodipodi:docname="logo.svg"
   inkscape:version="1.0.2 (e86c870879, 2021-01-15)">
  <sodipodi:namedview
     pagecolor="#ffffff"
     bordercolor="#666666"
     borderopacity="1"
     objecttolerance="10"
     gridtolerance="10"
     guidetolerance="10"
     inkscape:pageopacity="0"
     inkscape:pageshadow="2"
     inkscape:window-width="1440"
     inkscape:window-height="840"
     id="namedview18"
     showgrid="false"
     inkscape:zoom="2.8711111"
     inkscape:cx="116.01365"
     inkscape:cy="14.268977"
     inkscape:window-x="0"
     inkscape:window-y="32"
     inkscape:window-maximized="1"
     inkscape:current-layer="g10" />
  <metadata
     id="metadata8">
    <rdf:RDF>
      <cc:Work
         rdf:about="">
        <dc:format>image/svg+xml</dc:format>
        <dc:type
           rdf:resource="http://purl.org/dc/dcmitype/StillImage" />
        <dc:title />
      </cc:Work>
    </rdf:RDF>
  </metadata>
  <defs
     id="defs6" />
  <g
     id="g10"
     style="fill:#000000;fill-opacity:1">
    <path
       d="m 64.941326,35.807891 v -21.02834 h 8.695288 q 1.477629,0 2.727933,0.621965 1.250302,0.621965 2.159613,1.688191 0.909312,1.036608 1.392383,2.339773 0.511487,1.303164 0.511487,2.635946 0,1.865896 -0.852479,3.524469 -0.824063,1.658573 -2.33011,2.724798 -1.47763,1.036609 -3.466748,1.036609 H 70.48244 v 6.456589 z M 70.48244,24.316347 h 2.926845 q 0.340992,0 0.653568,-0.207322 0.312575,-0.207321 0.511487,-0.710816 0.227328,-0.503496 0.227328,-1.332783 0,-0.888521 -0.255744,-1.3624 -0.227327,-0.503494 -0.596736,-0.681199 -0.340991,-0.207321 -0.681983,-0.207321 H 70.48244 Z"
       style="font-style:normal;font-variant:normal;font-weight:normal;font-stretch:normal;font-size:37.2578px;line-height:1.25;font-family:Raleway;-inkscape-font-specification:'Raleway, @wght=900';font-variant-ligatures:normal;font-variant-caps:normal;font-variant-numeric:normal;font-variant-east-asian:normal;font-variation-settings:'wght' 900;fill:#ffffff;fill-opacity:1;stroke:none;stroke-width:0.761199;stroke-opacity:1"
       id="path843" />
    <path
       d="m 81.223616,31.098728 q 0,-1.569722 0.824064,-2.754417 0.824063,-1.214313 2.273278,-1.895513 1.47763,-0.681199 3.353084,-0.681199 0.880895,0 1.648127,0.148086 0.795646,0.148087 1.363966,0.444261 v -0.473877 q 0,-1.095844 -0.625152,-1.628956 Q 89.464249,23.724 88.100281,23.724 q -1.250302,0 -2.358525,0.44426 -1.079807,0.414643 -2.273278,1.24393 L 81.9056,21.917339 q 1.506046,-1.00699 3.154172,-1.480869 1.676543,-0.503495 3.580413,-0.503495 3.551996,0 5.484283,1.688191 1.960701,1.658573 1.960701,4.946102 v 3.020973 q 0,0.799669 0.227329,1.12546 0.227327,0.296174 0.795646,0.355409 v 4.738781 q -0.653566,0.148087 -1.250302,0.207322 -0.568319,0.08885 -1.022975,0.08885 -1.449215,0 -2.216446,-0.533112 -0.738815,-0.562731 -0.966143,-1.628957 l -0.113664,-0.562729 q -0.994559,1.332781 -2.301693,2.043599 -1.307136,0.681199 -2.784765,0.681199 -1.477632,0 -2.671102,-0.651582 -1.19347,-0.651582 -1.875454,-1.777043 -0.681984,-1.155078 -0.681984,-2.576711 z m 8.75212,0.385025 q 0.312575,-0.236939 0.511487,-0.503496 0.198912,-0.296173 0.198912,-0.592347 v -1.155078 q -0.454656,-0.177704 -1.051391,-0.296174 -0.56832,-0.118469 -1.022975,-0.118469 -0.966143,0 -1.648126,0.503495 -0.653568,0.503496 -0.653568,1.273548 0,0.414643 0.227328,0.770052 0.227327,0.325791 0.625151,0.533112 0.397825,0.177705 0.909312,0.177705 0.483071,0 0.994558,-0.148087 0.539904,-0.177705 0.909312,-0.444261 z"
       style="font-style:normal;font-variant:normal;font-weight:normal;font-stretch:normal;font-size:37.2578px;line-height:1.25;font-family:Raleway;-inkscape-font-specification:'Raleway, @wght=900';font-variant-ligatures:normal;font-variant-caps:normal;font-variant-numeric:normal;font-variant-east-asian:normal;font-variation-settings:'wght' 900;fill:#ffffff;fill-opacity:1;stroke:none;stroke-width:0.761199;stroke-opacity:1"
       id="path845" />
    <path
       d="m 109.21332,25.027164 q -1.56288,0 -2.8416,0.355409 -1.27872,0.355409 -1.90387,1.184695 v 9.240623 H 99.068819 V 20.229149 h 4.944381 v 2.961738 q 0.79564,-1.569721 1.98911,-2.399008 1.19347,-0.858904 2.52903,-0.858904 0.31257,0 0.42623,0 0.14208,0 0.25575,0.02962 z"
       style="font-style:normal;font-variant:normal;font-weight:normal;font-stretch:normal;font-size:37.2578px;line-height:1.25;font-family:Raleway;-inkscape-font-specification:'Raleway, @wght=900';font-variant-ligatures:normal;font-variant-caps:normal;font-variant-numeric:normal;font-variant-east-asian:normal;font-variation-settings:'wght' 900;fill:#ffffff;fill-opacity:1;stroke:none;stroke-width:0.761199;stroke-opacity:1"
       id="path847" />
    <path
       d="m 121.37531,34.948987 c -0.49254,0.217193 -1.02298,0.424515 -1.59129,0.621965 -0.54938,0.177704 -1.1177,0.315918 -1.70496,0.414643 -0.56832,0.09872 -1.12717,0.148087 -1.67655,0.148087 -0.81459,0 -1.56287,-0.138214 -2.24485,-0.414643 -0.68199,-0.296174 -1.23137,-0.770053 -1.64814,-1.421635 -0.39782,-0.671327 -0.59673,-1.569721 -0.59673,-2.695181 v -7.137789 h -1.84704 v -4.235285 h 1.84704 l -0.11418,-4.270667 5.51321,-0.616201 v 4.886868 h 2.92685 v 4.235285 h -2.92685 v 5.153424 c 0,0.513368 0.10419,0.878649 0.31258,1.095843 0.20838,0.19745 0.49254,0.296174 0.85248,0.296174 0.26521,0 0.56832,-0.04937 0.90931,-0.148087 0.34099,-0.09873 0.68199,-0.217194 1.02298,-0.355408 z"
       style="font-style:normal;font-variant:normal;font-weight:normal;font-stretch:normal;font-size:37.2578px;line-height:1.25;font-family:Raleway;-inkscape-font-specification:'Raleway, @wght=900';font-variant-ligatures:normal;font-variant-caps:normal;font-variant-numeric:normal;font-variant-east-asian:normal;font-variation-settings:'wght' 900;fill:#ffffff;fill-opacity:1;stroke:none;stroke-width:0.761199;stroke-opacity:1"
       id="path849"
       sodipodi:nodetypes="cccsccsccccccccccscsscc" />
    <path
       d="m 137.94178,35.807891 h -5.39904 v -8.766744 q 0,-1.155078 -0.51148,-1.658574 -0.48308,-0.533113 -1.22189,-0.533113 -0.341,0 -0.85248,0.266556 -0.48307,0.266557 -0.93773,0.770053 -0.45465,0.503494 -0.71039,1.184695 v 8.737127 h -5.39905 V 14.187203 h 5.39905 v 8.352101 q 0.79564,-1.273547 2.07435,-1.925129 1.30714,-0.6812 2.87002,-0.6812 1.5913,0 2.52902,0.56273 0.93773,0.533113 1.39239,1.392017 0.45465,0.858904 0.59673,1.836278 0.1705,0.977374 0.1705,1.836277 z"
       style="font-style:normal;font-variant:normal;font-weight:normal;font-stretch:normal;font-size:37.2578px;line-height:1.25;font-family:Raleway;-inkscape-font-specification:'Raleway, @wght=900';font-variant-ligatures:normal;font-variant-caps:normal;font-variant-numeric:normal;font-variant-east-asian:normal;font-variation-settings:'wght' 900;fill:#ffffff;fill-opacity:1;stroke:none;stroke-width:0.761199;stroke-opacity:1"
       id="path851" />
    <path
       d="m 147.91574,36.104064 q -1.96071,0 -3.49517,-0.621964 -1.53446,-0.651584 -2.58585,-1.747426 -1.02298,-1.095843 -1.56288,-2.517477 -0.5399,-1.421634 -0.5399,-2.991356 0,-2.25092 0.93772,-4.116816 0.93773,-1.895512 2.75635,-3.020972 1.81862,-1.155078 4.48973,-1.155078 2.6711,0 4.48972,1.12546 1.81863,1.125461 2.75634,2.961738 0.93774,1.836278 0.93774,3.998347 0,0.44426 -0.0568,0.918138 -0.0284,0.444261 -0.0853,0.79967 h -10.48549 q 0.0568,0.829287 0.42624,1.3624 0.39783,0.503495 0.96615,0.740434 0.59673,0.236939 1.22188,0.236939 0.88089,0 1.64813,-0.414643 0.79564,-0.414644 1.05139,-1.155078 l 4.57498,1.362399 q -0.59674,1.24393 -1.67655,2.191686 -1.05139,0.947756 -2.50061,1.510487 -1.44921,0.533112 -3.26783,0.533112 z m -2.55744,-9.744118 h 4.94438 q -0.0853,-0.770051 -0.42625,-1.303164 -0.31257,-0.533113 -0.85247,-0.829286 -0.51149,-0.296174 -1.19348,-0.296174 -0.68198,0 -1.22188,0.296174 -0.51149,0.296173 -0.85248,0.829286 -0.31257,0.533113 -0.39782,1.303164 z"
       style="font-style:normal;font-variant:normal;font-weight:normal;font-stretch:normal;font-size:37.2578px;line-height:1.25;font-family:Raleway;-inkscape-font-specification:'Raleway, @wght=900';font-variant-ligatures:normal;font-variant-caps:normal;font-variant-numeric:normal;font-variant-east-asian:normal;font-variation-settings:'wght' 900;fill:#ffffff;fill-opacity:1;stroke:none;stroke-width:0.761199;stroke-opacity:1"
       id="path853" />
    <path
       d="M 157.71923,30.476762 V 20.229149 h 5.39903 v 8.974065 q 0,1.006992 0.42624,1.599339 0.45466,0.562731 1.22188,0.562731 0.42625,0 0.85249,-0.11847 0.42623,-0.11847 0.85247,-0.473878 0.45467,-0.355409 0.88089,-1.006991 v -9.536796 h 5.39904 v 9.359092 q 0,0.799669 0.22733,1.12546 0.22733,0.296174 0.79565,0.355409 v 4.738781 q -0.7104,0.148087 -1.27873,0.207322 -0.56831,0.08885 -0.99455,0.08885 -1.36397,0 -2.15961,-0.533112 -0.79565,-0.533113 -1.02297,-1.628957 l -0.11367,-0.562729 q -1.05139,1.45125 -2.52903,2.102834 -1.44921,0.621964 -3.29625,0.621964 -2.24486,0 -3.46674,-1.451251 -1.19347,-1.451252 -1.19347,-4.17605 z"
       style="font-style:normal;font-variant:normal;font-weight:normal;font-stretch:normal;font-size:37.2578px;line-height:1.25;font-family:Raleway;-inkscape-font-specification:'Raleway, @wght=900';font-variant-ligatures:normal;font-variant-caps:normal;font-variant-numeric:normal;font-variant-east-asian:normal;font-variation-settings:'wght' 900;fill:#ffffff;fill-opacity:1;stroke:none;stroke-width:0.761199;stroke-opacity:1"
       id="path855" />
    <path
       d="m 200.0874,35.807891 h -5.39904 v -8.766744 q 0,-1.155078 -0.45465,-1.658574 -0.42625,-0.533113 -1.0514,-0.533113 -0.62514,0 -1.36396,0.621965 -0.73882,0.621965 -1.07981,1.599339 v 8.737127 h -5.39903 v -8.766744 q 0,-1.155078 -0.45466,-1.658574 -0.42624,-0.533113 -1.05139,-0.533113 -0.62515,0 -1.36396,0.621965 -0.73882,0.621965 -1.07981,1.599339 v 8.737127 h -5.39904 V 20.229149 h 4.85913 v 2.310155 q 0.79565,-1.273547 2.18804,-1.925129 1.39238,-0.6812 3.29624,-0.6812 1.84705,0 2.78477,0.829286 0.93773,0.829287 1.25031,1.865896 0.79565,-1.273548 2.18803,-1.984364 1.39238,-0.710818 3.12575,-0.710818 1.47763,0 2.35852,0.56273 0.88091,0.56273 1.30714,1.451252 0.45466,0.888521 0.59674,1.865894 0.14208,0.947757 0.14208,1.747426 z"
       style="font-style:normal;font-variant:normal;font-weight:normal;font-stretch:normal;font-size:37.2578px;line-height:1.25;font-family:Raleway;-inkscape-font-specification:'Raleway, @wght=900';font-variant-ligatures:normal;font-variant-caps:normal;font-variant-numeric:normal;font-variant-east-asian:normal;font-variation-settings:'wght' 900;fill:#ffffff;fill-opacity:1;stroke:none;stroke-width:0.761199;stroke-opacity:1"
       id="path857" />
    <g
       id="g997"
       transform="matrix(0.06829181,0,0,0.06829876,19.615482,4.1653332)"
       style="fill:#ffffff;fill-opacity:1;stroke:none;stroke-opacity:1">
      <path
         d="M 26.492188,459.05859 H 485.52734 v -8.82812 c 0,-4.875 -3.95312,-8.82813 -8.82812,-8.82813 H 35.320312 c -4.875,0 -8.828124,3.95313 -8.828124,8.82813 z m 0,0"
         id="path962"
         style="fill:#ffffff;fill-opacity:1;stroke:none;stroke-opacity:1" />
      <path
         d="M 26.492188,132.4375 H 485.52734 v 17.65234 H 26.492188 Z m 0,0"
         id="path964"
         style="fill:#ffffff;fill-opacity:1;stroke:none;stroke-opacity:1" />
      <path
         d="m 97.113281,194.23047 v -17.65625 c 0,-4.875 -3.949219,-8.82813 -8.828125,-8.82813 H 35.320312 c -4.875,0 -8.828124,3.95313 -8.828124,8.82813 v 17.65625 c 0,4.875 3.953124,8.82812 8.828124,8.82812 h 8.828126 c 0,0 -8.296876,33.27735 -8.828126,220.6875 H 88.199219 C 87.757812,236.33594 79.460938,203.05859 79.460938,203.05859 h 8.824218 c 4.878906,0 8.828125,-3.95312 8.828125,-8.82812 z m 0,0"
         id="path966"
         style="fill:#ffffff;fill-opacity:1;stroke:none;stroke-opacity:1" />
      <path
         d="m 485.52734,176.57422 c 0,-4.875 -3.95312,-8.82813 -8.82812,-8.82813 h -52.96485 c -4.875,0 -8.82812,3.95313 -8.82812,8.82813 v 17.65625 c 0,4.875 3.95312,8.82812 8.82812,8.82812 h 8.82813 c 0,0 -8.29688,33.27735 -8.82813,220.6875 h 52.87891 C 476.17188,236.33594 467.875,203.05859 467.875,203.05859 h 8.82422 c 4.875,0 8.82812,-3.95312 8.82812,-8.82812 z m 0,0"
         id="path968"
         style="fill:#ffffff;fill-opacity:1;stroke:none;stroke-opacity:1" />
      <path
         d="m 353.11328,194.23047 v -17.65625 c 0,-4.875 -3.94922,-8.82813 -8.82812,-8.82813 h -52.96485 c -4.875,0 -8.82812,3.95313 -8.82812,8.82813 v 17.65625 c 0,4.875 3.95312,8.82812 8.82812,8.82812 h 8.82813 c 0,0 -8.29688,33.27735 -8.82813,220.6875 h 52.87891 c -0.44141,-187.41015 -8.73828,-220.6875 -8.73828,-220.6875 h 8.82422 c 4.8789,0 8.82812,-3.95312 8.82812,-8.82812 z m 0,0"
         id="path970"
         style="fill:#ffffff;fill-opacity:1;stroke:none;stroke-opacity:1" />
      <path
         d="m 229.52734,194.23047 v -17.65625 c 0,-4.875 -3.95312,-8.82813 -8.82812,-8.82813 h -52.96485 c -4.875,0 -8.82812,3.95313 -8.82812,8.82813 v 17.65625 c 0,4.875 3.95312,8.82812 8.82812,8.82812 h 8.82813 c 0,0 -8.29688,33.27735 -8.82813,220.6875 h 52.87891 C 220.17187,236.33594 211.875,203.05859 211.875,203.05859 h 8.82422 c 4.875,0 8.82812,-3.95312 8.82812,-8.82812 z m 0,0"
         id="path972"
         style="fill:#ffffff;fill-opacity:1;stroke:none;stroke-opacity:1" />
      <path
         d="M 8.839844,476.71094 H 503.18359 c 4.875,0 8.82813,3.95312 8.82813,8.82812 v 17.65625 c 0,4.875 -3.95313,8.82813 -8.82813,8.82813 H 8.839844 c -4.875,0 -8.8281252,-3.95313 -8.8281252,-8.82813 v -17.65625 c 0,-4.875 3.9531252,-8.82812 8.8281252,-8.82812 z m 0,0"
         id="path974"
         style="fill:#ffffff;fill-opacity:1;stroke:none;stroke-opacity:1" />
      <path
         d="M 6.632812,114.78125 H 505.39062 c 3.13672,-0.0742 5.8086,-2.29297 6.46094,-5.36328 0.65235,-3.07031 -0.89062,-6.18359 -3.72265,-7.52344 L 270.13672,2.847656 c -9.03516,-3.796875 -19.21484,-3.796875 -28.25,0 L 3.894531,101.89453 c -2.835937,1.33985 -4.375,4.45313 -3.726562,7.52344 0.652343,3.07031 3.328125,5.28906 6.464843,5.36328 z M 146.28516,71.347656 252.03906,27.300781 c 1.08985,-0.453125 2.26172,-0.695312 3.44141,-0.707031 h 1.05859 c 1.1836,0.01172 2.35156,0.253906 3.44531,0.707031 l 105.75391,44.046875 c 3.83985,1.636719 6.01172,5.742188 5.19922,9.835938 -0.80859,4.097656 -4.37891,7.066406 -8.55469,7.113281 H 149.64063 c -4.17579,-0.04687 -7.7461,-3.015625 -8.5586,-7.113281 -0.80859,-4.09375 1.35938,-8.199219 5.20313,-9.835938 z m 0,0"
         id="path976"
         style="fill:#ffffff;fill-opacity:1;stroke:none;stroke-opacity:1" />
      <path
         d="m 256.01172,44.777344 -62.14844,25.867187 h 124.29297 z m 0,0"
         id="path978"
         style="fill:#ffffff;fill-opacity:1;stroke:none;stroke-opacity:1" />
    </g>
  </g>
</svg>
